<mxfile host="Electron" modified="2024-05-03T08:27:38.808Z" agent="Mozilla/5.0 (Windows NT 10.0; Win64; x64) AppleWebKit/537.36 (KHTML, like Gecko) draw.io/24.2.5 Chrome/120.0.6099.109 Electron/28.1.0 Safari/537.36" etag="l29fzZBURhawxnKTVgWU" version="24.2.5" type="device">
  <diagram name="Page-1" id="CbuJLGPLXnKGEShnOWZa">
    <mxGraphModel dx="941" dy="644" grid="1" gridSize="10" guides="1" tooltips="1" connect="1" arrows="1" fold="1" page="1" pageScale="1" pageWidth="1654" pageHeight="1169" math="0" shadow="0">
      <root>
        <mxCell id="0" />
        <mxCell id="1" parent="0" />
        <mxCell id="_htgR1kDYkT6OODpG5PI-1" value="CommandProcessor: Command" style="swimlane;fontStyle=0;childLayout=stackLayout;horizontal=1;startSize=30;horizontalStack=0;resizeParent=1;resizeParentMax=0;resizeLast=0;collapsible=1;marginBottom=0;whiteSpace=wrap;html=1;" vertex="1" parent="1">
          <mxGeometry x="410" y="270" width="300" height="60" as="geometry" />
        </mxCell>
        <mxCell id="_htgR1kDYkT6OODpG5PI-2" value="+ _commands: List&amp;lt;Command&amp;gt;" style="text;strokeColor=none;fillColor=none;align=left;verticalAlign=middle;spacingLeft=4;spacingRight=4;overflow=hidden;points=[[0,0.5],[1,0.5]];portConstraint=eastwest;rotatable=0;whiteSpace=wrap;html=1;" vertex="1" parent="_htgR1kDYkT6OODpG5PI-1">
          <mxGeometry y="30" width="300" height="30" as="geometry" />
        </mxCell>
        <mxCell id="_htgR1kDYkT6OODpG5PI-5" value="" style="swimlane;startSize=0;" vertex="1" parent="1">
          <mxGeometry x="410" y="330" width="300" height="70" as="geometry" />
        </mxCell>
        <mxCell id="_htgR1kDYkT6OODpG5PI-6" value="+ CommandProcessor ()" style="text;strokeColor=none;fillColor=none;align=left;verticalAlign=middle;spacingLeft=4;spacingRight=4;overflow=hidden;points=[[0,0.5],[1,0.5]];portConstraint=eastwest;rotatable=0;whiteSpace=wrap;html=1;" vertex="1" parent="_htgR1kDYkT6OODpG5PI-5">
          <mxGeometry width="300" height="30" as="geometry" />
        </mxCell>
        <mxCell id="_htgR1kDYkT6OODpG5PI-7" value="+ Execute (Player p, string text): string &amp;lt;&amp;lt;override&amp;gt;&amp;gt;" style="text;strokeColor=none;fillColor=none;align=left;verticalAlign=middle;spacingLeft=4;spacingRight=4;overflow=hidden;points=[[0,0.5],[1,0.5]];portConstraint=eastwest;rotatable=0;whiteSpace=wrap;html=1;" vertex="1" parent="_htgR1kDYkT6OODpG5PI-5">
          <mxGeometry y="30" width="300" height="30" as="geometry" />
        </mxCell>
      </root>
    </mxGraphModel>
  </diagram>
</mxfile>
